<svg width="69" height="86" viewBox="0 0 69 86" fill="none" xmlns="http://www.w3.org/2000/svg">
<g clip-path="url(#clip0_2_23)">
<path d="M35.4544 12.9021C39.5056 12.8993 43.5286 13.5729 47.357 14.895V2.65461C47.356 2.42215 47.2811 2.19598 47.1431 2.0087C47.0051 1.82142 46.8111 1.6827 46.589 1.61251C46.3669 1.54233 46.1282 1.54429 45.9073 1.61815C45.6864 1.69201 45.4947 1.83393 45.3598 2.02347L42.2931 6.37262C42.1915 6.51627 42.0569 6.63348 41.9004 6.71438C41.744 6.79528 41.5704 6.83751 41.3942 6.83751C41.218 6.83751 41.0444 6.79528 40.888 6.71438C40.7315 6.63348 40.5969 6.51627 40.4953 6.37262L36.3169 0.470476C36.2158 0.326839 36.0815 0.209602 35.9253 0.12867C35.7692 0.0477384 35.5959 0.00549316 35.4199 0.00549316C35.244 0.00549316 35.0707 0.0477384 34.9145 0.12867C34.7584 0.209602 34.6241 0.326839 34.5229 0.470476L30.3139 6.3688C30.2128 6.51244 30.0785 6.62968 29.9224 6.71061C29.7662 6.79154 29.5929 6.83379 29.4169 6.83379C29.241 6.83379 29.0677 6.79154 28.9115 6.71061C28.7554 6.62968 28.6211 6.51244 28.5199 6.3688L25.4533 2.01965C25.319 1.82846 25.127 1.68498 24.9054 1.61007C24.6838 1.53516 24.444 1.53272 24.2209 1.60309C23.9977 1.67347 23.8029 1.813 23.6647 2.00141C23.5265 2.18982 23.4521 2.4173 23.4523 2.65079V14.8912C27.3142 13.5664 31.3707 12.8941 35.4544 12.9021Z" fill="#D71921"/>
<path d="M12.4469 76.9689C15.8792 79.8655 20.2538 81.4108 24.748 81.3142H24.8324C27.6115 81.1268 31.9202 80.2967 34.0554 79.547C42.0709 76.7241 47.955 69.3837 50.2857 60.4215C48.1272 63.5723 45.0286 65.9644 41.4301 67.2579C37.8316 68.5514 33.9161 68.6805 30.2398 67.6268C26.5636 66.5732 23.3135 64.3904 20.9514 61.3886C18.5892 58.3868 17.2349 54.7185 17.0811 50.9049C16.9273 47.0914 17.9816 43.3264 20.0944 40.1448C22.2071 36.9632 25.2708 34.5268 28.8503 33.1818C32.4298 31.8367 36.343 31.6513 40.0341 32.652C43.7252 33.6526 47.0064 35.7885 49.4117 38.756L62.2227 44.7729L65.918 32.7238C62.3588 26.5097 56.9877 21.5244 50.5194 18.4311C44.051 15.3378 36.7921 14.2832 29.7084 15.4075C12.8609 18.0583 0.168694 32.7429 2.72323e-05 49.7609C-0.0613518 54.9308 1.02254 60.0504 3.1742 64.7538C5.32587 69.4573 8.4922 73.6283 12.4469 76.9689Z" fill="#D71921"/>
<path d="M63.8288 48.3724L52.9307 43.2543C52.9307 43.2543 53.2604 44.968 53.3485 45.8248C54.073 52.733 53.6399 60.628 50.6652 67.0083C49.0299 70.5652 46.7282 73.7773 43.884 76.4716C41.306 78.9016 38.252 80.7731 34.914 81.9683C32.5603 82.7984 28.014 83.6705 25.0048 83.8809H24.771C24.4758 83.8809 24.1807 83.8809 23.8855 83.8579C32.2958 87.4229 44.5855 86.5355 52.9537 81.2683C66.2553 72.9066 72.2315 54.1597 67.252 37.1954L63.8288 48.3724Z" fill="#D71921"/>
</g>
<defs>
<clipPath id="clip0_2_23">
<rect width="69" height="86" fill="white"/>
</clipPath>
</defs>
</svg>
